<svg xmlns="http://www.w3.org/2000/svg" xmlns:xlink="http://www.w3.org/1999/xlink" width="300" zoomAndPan="magnify" viewBox="0 0 224.87999 74.999997" height="100" preserveAspectRatio="xMidYMid meet" version="1.0"><defs><g/><clipPath id="0591ff16ca"><path d="M 20.550781 14.226562 L 55.78125 14.226562 L 55.78125 60.703125 L 20.550781 60.703125 Z M 20.550781 14.226562 " clip-rule="nonzero"/></clipPath><clipPath id="dcd847e581"><path d="M 54.207031 23.230469 L 39.863281 14.867188 C 39.433594 14.542969 38.929688 14.335938 38.398438 14.261719 C 37.867188 14.1875 37.324219 14.246094 36.824219 14.4375 L 21.566406 23.289062 C 20.820312 23.601562 20.617188 24.628906 20.5625 24.828125 L 20.5625 52.976562 C 20.527344 53.265625 20.566406 53.558594 20.683594 53.824219 C 20.800781 54.089844 20.984375 54.320312 21.21875 54.492188 L 31.289062 60.398438 C 31.6875 60.476562 32.097656 60.476562 32.492188 60.394531 C 32.890625 60.3125 33.265625 60.152344 33.601562 59.925781 C 33.933594 59.695312 34.21875 59.402344 34.4375 59.0625 C 34.65625 58.722656 34.804688 58.34375 34.875 57.945312 L 34.875 43.929688 C 34.875 43.867188 34.894531 43.804688 34.921875 43.75 C 34.953125 43.695312 34.996094 43.648438 35.046875 43.613281 L 40.554688 40.5 L 42.53125 39.359375 C 42.882812 39.167969 43.175781 38.882812 43.375 38.535156 C 43.570312 38.1875 43.667969 37.789062 43.652344 37.390625 L 43.335938 26.96875 C 43.335938 26.910156 43.320312 26.851562 43.289062 26.804688 C 43.261719 26.753906 43.214844 26.710938 43.164062 26.683594 C 42.300781 26.199219 40.667969 25.285156 40.292969 24.914062 C 40.109375 24.777344 39.882812 24.703125 39.648438 24.703125 C 39.417969 24.703125 39.191406 24.777344 39.003906 24.914062 L 31.347656 29.425781 C 31.1875 29.535156 31.058594 29.679688 30.96875 29.847656 C 30.878906 30.015625 30.832031 30.203125 30.828125 30.394531 L 30.828125 54.632812 C 30.832031 54.691406 30.820312 54.75 30.792969 54.800781 C 30.765625 54.855469 30.726562 54.898438 30.675781 54.925781 C 30.625 54.957031 30.566406 54.972656 30.507812 54.96875 C 30.449219 54.96875 30.390625 54.949219 30.34375 54.917969 L 24.777344 51.921875 C 24.726562 51.890625 24.683594 51.851562 24.652344 51.800781 C 24.625 51.75 24.605469 51.695312 24.605469 51.636719 C 24.605469 49.4375 24.605469 28.65625 24.605469 27.570312 C 24.546875 27.292969 24.566406 27.003906 24.664062 26.738281 C 24.761719 26.46875 24.929688 26.234375 25.148438 26.054688 C 25.148438 26.054688 36.308594 19.632812 37.023438 19.175781 C 37.246094 19.039062 37.496094 18.96875 37.757812 18.96875 C 38.015625 18.96875 38.269531 19.039062 38.488281 19.175781 C 38.488281 19.175781 48.269531 24.886719 49.414062 25.371094 C 50.121094 25.761719 50.660156 26.390625 50.9375 27.140625 C 50.9375 27.941406 50.9375 38.730469 50.9375 39.988281 C 50.972656 40.363281 50.898438 40.738281 50.726562 41.070312 C 50.550781 41.40625 50.285156 41.683594 49.960938 41.871094 L 39.117188 48.210938 C 39.066406 48.242188 39.023438 48.289062 38.992188 48.34375 C 38.960938 48.398438 38.945312 48.460938 38.945312 48.523438 L 38.945312 52.691406 C 38.949219 52.75 38.964844 52.808594 38.996094 52.859375 C 39.027344 52.910156 39.070312 52.953125 39.125 52.980469 C 39.175781 53.007812 39.234375 53.023438 39.292969 53.023438 C 39.351562 53.023438 39.410156 53.007812 39.464844 52.976562 L 53.488281 44.8125 C 53.933594 44.613281 54.328125 44.316406 54.648438 43.945312 C 54.964844 43.574219 55.195312 43.140625 55.324219 42.671875 L 55.324219 25.542969 C 55.269531 24.65625 54.867188 23.824219 54.207031 23.230469 Z M 34.929688 32.535156 C 34.929688 32.355469 34.976562 32.179688 35.066406 32.023438 C 35.15625 31.867188 35.289062 31.738281 35.449219 31.652344 L 39.519531 29.339844 C 39.617188 29.285156 39.726562 29.253906 39.835938 29.253906 C 39.945312 29.253906 40.054688 29.285156 40.152344 29.339844 C 40.246094 29.394531 40.328125 29.472656 40.382812 29.570312 C 40.4375 29.664062 40.464844 29.773438 40.46875 29.882812 L 40.46875 35.191406 C 40.46875 35.328125 40.433594 35.464844 40.371094 35.582031 C 40.304688 35.703125 40.210938 35.804688 40.09375 35.878906 L 35.304688 38.730469 C 35.25 38.753906 35.191406 38.765625 35.132812 38.761719 C 35.074219 38.753906 35.015625 38.738281 34.964844 38.707031 C 34.914062 38.675781 34.871094 38.632812 34.839844 38.582031 C 34.8125 38.535156 34.792969 38.476562 34.789062 38.417969 Z M 34.929688 32.535156 " clip-rule="nonzero"/></clipPath><linearGradient x1="-0.00000140418" gradientTransform="matrix(0.438926, 0, 0, 0.438926, 20.54885, 14.231356)" y1="52.696999" x2="79.229202" gradientUnits="userSpaceOnUse" y2="52.696999" id="9569aa7154"><stop stop-opacity="1" stop-color="rgb(9.466553%, 0.325012%, 67.987061%)" offset="0"/><stop stop-opacity="1" stop-color="rgb(9.515381%, 0.602722%, 68.110657%)" offset="0.00390625"/><stop stop-opacity="1" stop-color="rgb(9.564209%, 0.880432%, 68.235779%)" offset="0.0078125"/><stop stop-opacity="1" stop-color="rgb(9.613037%, 1.158142%, 68.360901%)" offset="0.0117188"/><stop stop-opacity="1" stop-color="rgb(9.661865%, 1.435852%, 68.486023%)" offset="0.015625"/><stop stop-opacity="1" stop-color="rgb(9.710693%, 1.713562%, 68.611145%)" offset="0.0195313"/><stop stop-opacity="1" stop-color="rgb(9.759521%, 1.991272%, 68.736267%)" offset="0.0234375"/><stop stop-opacity="1" stop-color="rgb(9.80835%, 2.267456%, 68.861389%)" offset="0.0273438"/><stop stop-opacity="1" stop-color="rgb(9.857178%, 2.545166%, 68.986511%)" offset="0.03125"/><stop stop-opacity="1" stop-color="rgb(9.906006%, 2.822876%, 69.111633%)" offset="0.0351563"/><stop stop-opacity="1" stop-color="rgb(9.954834%, 3.100586%, 69.236755%)" offset="0.0390625"/><stop stop-opacity="1" stop-color="rgb(10.003662%, 3.378296%, 69.361877%)" offset="0.0429688"/><stop stop-opacity="1" stop-color="rgb(10.05249%, 3.656006%, 69.487%)" offset="0.046875"/><stop stop-opacity="1" stop-color="rgb(10.101318%, 3.933716%, 69.612122%)" offset="0.0507813"/><stop stop-opacity="1" stop-color="rgb(10.150146%, 4.211426%, 69.737244%)" offset="0.0546875"/><stop stop-opacity="1" stop-color="rgb(10.198975%, 4.48761%, 69.862366%)" offset="0.0585938"/><stop stop-opacity="1" stop-color="rgb(10.247803%, 4.76532%, 69.987488%)" offset="0.0625"/><stop stop-opacity="1" stop-color="rgb(10.296631%, 5.04303%, 70.11261%)" offset="0.0664063"/><stop stop-opacity="1" stop-color="rgb(10.345459%, 5.32074%, 70.237732%)" offset="0.0703125"/><stop stop-opacity="1" stop-color="rgb(10.394287%, 5.59845%, 70.362854%)" offset="0.0742188"/><stop stop-opacity="1" stop-color="rgb(10.443115%, 5.87616%, 70.487976%)" offset="0.078125"/><stop stop-opacity="1" stop-color="rgb(10.491943%, 6.15387%, 70.611572%)" offset="0.0820313"/><stop stop-opacity="1" stop-color="rgb(10.540771%, 6.43158%, 70.736694%)" offset="0.0859375"/><stop stop-opacity="1" stop-color="rgb(10.5896%, 6.707764%, 70.861816%)" offset="0.0898438"/><stop stop-opacity="1" stop-color="rgb(10.638428%, 6.985474%, 70.986938%)" offset="0.09375"/><stop stop-opacity="1" stop-color="rgb(10.687256%, 7.263184%, 71.112061%)" offset="0.0976563"/><stop stop-opacity="1" stop-color="rgb(10.736084%, 7.540894%, 71.237183%)" offset="0.101563"/><stop stop-opacity="1" stop-color="rgb(10.784912%, 7.818604%, 71.362305%)" offset="0.105469"/><stop stop-opacity="1" stop-color="rgb(10.83374%, 8.096313%, 71.487427%)" offset="0.109375"/><stop stop-opacity="1" stop-color="rgb(10.881042%, 8.374023%, 71.612549%)" offset="0.113281"/><stop stop-opacity="1" stop-color="rgb(10.929871%, 8.651733%, 71.737671%)" offset="0.117188"/><stop stop-opacity="1" stop-color="rgb(10.978699%, 8.927917%, 71.862793%)" offset="0.121094"/><stop stop-opacity="1" stop-color="rgb(11.027527%, 9.205627%, 71.987915%)" offset="0.125"/><stop stop-opacity="1" stop-color="rgb(11.076355%, 9.483337%, 72.113037%)" offset="0.128906"/><stop stop-opacity="1" stop-color="rgb(11.125183%, 9.761047%, 72.238159%)" offset="0.132812"/><stop stop-opacity="1" stop-color="rgb(11.174011%, 10.038757%, 72.363281%)" offset="0.136719"/><stop stop-opacity="1" stop-color="rgb(11.222839%, 10.316467%, 72.488403%)" offset="0.140625"/><stop stop-opacity="1" stop-color="rgb(11.271667%, 10.594177%, 72.613525%)" offset="0.144531"/><stop stop-opacity="1" stop-color="rgb(11.320496%, 10.871887%, 72.738647%)" offset="0.148438"/><stop stop-opacity="1" stop-color="rgb(11.369324%, 11.148071%, 72.86377%)" offset="0.152344"/><stop stop-opacity="1" stop-color="rgb(11.418152%, 11.425781%, 72.988892%)" offset="0.15625"/><stop stop-opacity="1" stop-color="rgb(11.46698%, 11.703491%, 73.114014%)" offset="0.160156"/><stop stop-opacity="1" stop-color="rgb(11.515808%, 11.981201%, 73.239136%)" offset="0.164062"/><stop stop-opacity="1" stop-color="rgb(11.564636%, 12.258911%, 73.362732%)" offset="0.167969"/><stop stop-opacity="1" stop-color="rgb(11.613464%, 12.536621%, 73.487854%)" offset="0.171875"/><stop stop-opacity="1" stop-color="rgb(11.662292%, 12.814331%, 73.612976%)" offset="0.175781"/><stop stop-opacity="1" stop-color="rgb(11.711121%, 13.092041%, 73.738098%)" offset="0.179688"/><stop stop-opacity="1" stop-color="rgb(11.759949%, 13.368225%, 73.86322%)" offset="0.183594"/><stop stop-opacity="1" stop-color="rgb(11.808777%, 13.645935%, 73.988342%)" offset="0.1875"/><stop stop-opacity="1" stop-color="rgb(11.857605%, 13.923645%, 74.113464%)" offset="0.191406"/><stop stop-opacity="1" stop-color="rgb(11.906433%, 14.201355%, 74.238586%)" offset="0.195312"/><stop stop-opacity="1" stop-color="rgb(11.955261%, 14.479065%, 74.363708%)" offset="0.199219"/><stop stop-opacity="1" stop-color="rgb(12.004089%, 14.756775%, 74.488831%)" offset="0.203125"/><stop stop-opacity="1" stop-color="rgb(12.052917%, 15.032959%, 74.613953%)" offset="0.207031"/><stop stop-opacity="1" stop-color="rgb(12.101746%, 15.310669%, 74.739075%)" offset="0.210938"/><stop stop-opacity="1" stop-color="rgb(12.150574%, 15.588379%, 74.864197%)" offset="0.214844"/><stop stop-opacity="1" stop-color="rgb(12.199402%, 15.866089%, 74.989319%)" offset="0.21875"/><stop stop-opacity="1" stop-color="rgb(12.24823%, 16.143799%, 75.114441%)" offset="0.222656"/><stop stop-opacity="1" stop-color="rgb(12.297058%, 16.421509%, 75.239563%)" offset="0.226562"/><stop stop-opacity="1" stop-color="rgb(12.345886%, 16.699219%, 75.364685%)" offset="0.230469"/><stop stop-opacity="1" stop-color="rgb(12.394714%, 16.976929%, 75.489807%)" offset="0.234375"/><stop stop-opacity="1" stop-color="rgb(12.443542%, 17.253113%, 75.614929%)" offset="0.238281"/><stop stop-opacity="1" stop-color="rgb(12.492371%, 17.530823%, 75.740051%)" offset="0.242188"/><stop stop-opacity="1" stop-color="rgb(12.541199%, 17.808533%, 75.865173%)" offset="0.246094"/><stop stop-opacity="1" stop-color="rgb(12.590027%, 18.086243%, 75.990295%)" offset="0.25"/><stop stop-opacity="1" stop-color="rgb(12.638855%, 18.363953%, 76.113892%)" offset="0.253906"/><stop stop-opacity="1" stop-color="rgb(12.687683%, 18.641663%, 76.239014%)" offset="0.257812"/><stop stop-opacity="1" stop-color="rgb(12.736511%, 18.919373%, 76.364136%)" offset="0.261719"/><stop stop-opacity="1" stop-color="rgb(12.785339%, 19.197083%, 76.489258%)" offset="0.265625"/><stop stop-opacity="1" stop-color="rgb(12.834167%, 19.473267%, 76.61438%)" offset="0.269531"/><stop stop-opacity="1" stop-color="rgb(12.882996%, 19.750977%, 76.739502%)" offset="0.273437"/><stop stop-opacity="1" stop-color="rgb(12.931824%, 20.028687%, 76.864624%)" offset="0.277344"/><stop stop-opacity="1" stop-color="rgb(12.980652%, 20.306396%, 76.989746%)" offset="0.28125"/><stop stop-opacity="1" stop-color="rgb(13.02948%, 20.584106%, 77.114868%)" offset="0.285156"/><stop stop-opacity="1" stop-color="rgb(13.078308%, 20.861816%, 77.23999%)" offset="0.289062"/><stop stop-opacity="1" stop-color="rgb(13.127136%, 21.139526%, 77.365112%)" offset="0.292969"/><stop stop-opacity="1" stop-color="rgb(13.175964%, 21.417236%, 77.490234%)" offset="0.296875"/><stop stop-opacity="1" stop-color="rgb(13.224792%, 21.69342%, 77.615356%)" offset="0.300781"/><stop stop-opacity="1" stop-color="rgb(13.273621%, 21.97113%, 77.740479%)" offset="0.304687"/><stop stop-opacity="1" stop-color="rgb(13.322449%, 22.24884%, 77.865601%)" offset="0.308594"/><stop stop-opacity="1" stop-color="rgb(13.371277%, 22.52655%, 77.990723%)" offset="0.3125"/><stop stop-opacity="1" stop-color="rgb(13.420105%, 22.80426%, 78.115845%)" offset="0.316406"/><stop stop-opacity="1" stop-color="rgb(13.468933%, 23.08197%, 78.240967%)" offset="0.320312"/><stop stop-opacity="1" stop-color="rgb(13.516235%, 23.35968%, 78.366089%)" offset="0.324219"/><stop stop-opacity="1" stop-color="rgb(13.565063%, 23.63739%, 78.491211%)" offset="0.328125"/><stop stop-opacity="1" stop-color="rgb(13.613892%, 23.913574%, 78.614807%)" offset="0.332031"/><stop stop-opacity="1" stop-color="rgb(13.66272%, 24.191284%, 78.739929%)" offset="0.335937"/><stop stop-opacity="1" stop-color="rgb(13.711548%, 24.468994%, 78.865051%)" offset="0.339844"/><stop stop-opacity="1" stop-color="rgb(13.760376%, 24.746704%, 78.990173%)" offset="0.34375"/><stop stop-opacity="1" stop-color="rgb(13.809204%, 25.024414%, 79.115295%)" offset="0.347656"/><stop stop-opacity="1" stop-color="rgb(13.858032%, 25.302124%, 79.240417%)" offset="0.351562"/><stop stop-opacity="1" stop-color="rgb(13.90686%, 25.579834%, 79.36554%)" offset="0.355469"/><stop stop-opacity="1" stop-color="rgb(13.955688%, 25.857544%, 79.490662%)" offset="0.359375"/><stop stop-opacity="1" stop-color="rgb(14.004517%, 26.133728%, 79.615784%)" offset="0.363281"/><stop stop-opacity="1" stop-color="rgb(14.053345%, 26.411438%, 79.740906%)" offset="0.367187"/><stop stop-opacity="1" stop-color="rgb(14.102173%, 26.689148%, 79.866028%)" offset="0.371094"/><stop stop-opacity="1" stop-color="rgb(14.151001%, 26.966858%, 79.99115%)" offset="0.375"/><stop stop-opacity="1" stop-color="rgb(14.199829%, 27.244568%, 80.116272%)" offset="0.378906"/><stop stop-opacity="1" stop-color="rgb(14.248657%, 27.522278%, 80.241394%)" offset="0.382812"/><stop stop-opacity="1" stop-color="rgb(14.297485%, 27.799988%, 80.366516%)" offset="0.386719"/><stop stop-opacity="1" stop-color="rgb(14.346313%, 28.077698%, 80.491638%)" offset="0.390625"/><stop stop-opacity="1" stop-color="rgb(14.395142%, 28.353882%, 80.61676%)" offset="0.394531"/><stop stop-opacity="1" stop-color="rgb(14.44397%, 28.631592%, 80.741882%)" offset="0.398437"/><stop stop-opacity="1" stop-color="rgb(14.492798%, 28.909302%, 80.867004%)" offset="0.402344"/><stop stop-opacity="1" stop-color="rgb(14.541626%, 29.187012%, 80.992126%)" offset="0.40625"/><stop stop-opacity="1" stop-color="rgb(14.590454%, 29.464722%, 81.117249%)" offset="0.410156"/><stop stop-opacity="1" stop-color="rgb(14.639282%, 29.742432%, 81.242371%)" offset="0.414062"/><stop stop-opacity="1" stop-color="rgb(14.68811%, 30.020142%, 81.365967%)" offset="0.417969"/><stop stop-opacity="1" stop-color="rgb(14.736938%, 30.297852%, 81.491089%)" offset="0.421875"/><stop stop-opacity="1" stop-color="rgb(14.785767%, 30.574036%, 81.616211%)" offset="0.425781"/><stop stop-opacity="1" stop-color="rgb(14.834595%, 30.851746%, 81.741333%)" offset="0.429687"/><stop stop-opacity="1" stop-color="rgb(14.883423%, 31.129456%, 81.866455%)" offset="0.433594"/><stop stop-opacity="1" stop-color="rgb(14.932251%, 31.407166%, 81.991577%)" offset="0.4375"/><stop stop-opacity="1" stop-color="rgb(14.981079%, 31.684875%, 82.116699%)" offset="0.441406"/><stop stop-opacity="1" stop-color="rgb(15.029907%, 31.962585%, 82.241821%)" offset="0.445312"/><stop stop-opacity="1" stop-color="rgb(15.078735%, 32.240295%, 82.366943%)" offset="0.449219"/><stop stop-opacity="1" stop-color="rgb(15.127563%, 32.518005%, 82.492065%)" offset="0.453125"/><stop stop-opacity="1" stop-color="rgb(15.176392%, 32.794189%, 82.617188%)" offset="0.457031"/><stop stop-opacity="1" stop-color="rgb(15.22522%, 33.071899%, 82.74231%)" offset="0.460937"/><stop stop-opacity="1" stop-color="rgb(15.274048%, 33.349609%, 82.867432%)" offset="0.464844"/><stop stop-opacity="1" stop-color="rgb(15.322876%, 33.627319%, 82.992554%)" offset="0.46875"/><stop stop-opacity="1" stop-color="rgb(15.371704%, 33.905029%, 83.117676%)" offset="0.472656"/><stop stop-opacity="1" stop-color="rgb(15.420532%, 34.182739%, 83.242798%)" offset="0.476562"/><stop stop-opacity="1" stop-color="rgb(15.46936%, 34.460449%, 83.36792%)" offset="0.480469"/><stop stop-opacity="1" stop-color="rgb(15.518188%, 34.738159%, 83.493042%)" offset="0.484375"/><stop stop-opacity="1" stop-color="rgb(15.567017%, 35.014343%, 83.618164%)" offset="0.488281"/><stop stop-opacity="1" stop-color="rgb(15.615845%, 35.292053%, 83.743286%)" offset="0.492187"/><stop stop-opacity="1" stop-color="rgb(15.664673%, 35.569763%, 83.868408%)" offset="0.496094"/><stop stop-opacity="1" stop-color="rgb(15.713501%, 35.847473%, 83.99353%)" offset="0.5"/><stop stop-opacity="1" stop-color="rgb(15.762329%, 36.125183%, 84.117126%)" offset="0.503906"/><stop stop-opacity="1" stop-color="rgb(15.811157%, 36.402893%, 84.242249%)" offset="0.507812"/><stop stop-opacity="1" stop-color="rgb(15.859985%, 36.680603%, 84.367371%)" offset="0.511719"/><stop stop-opacity="1" stop-color="rgb(15.908813%, 36.958313%, 84.492493%)" offset="0.515625"/><stop stop-opacity="1" stop-color="rgb(15.957642%, 37.234497%, 84.617615%)" offset="0.519531"/><stop stop-opacity="1" stop-color="rgb(16.00647%, 37.512207%, 84.742737%)" offset="0.523438"/><stop stop-opacity="1" stop-color="rgb(16.053772%, 37.789917%, 84.867859%)" offset="0.527344"/><stop stop-opacity="1" stop-color="rgb(16.1026%, 38.067627%, 84.992981%)" offset="0.53125"/><stop stop-opacity="1" stop-color="rgb(16.151428%, 38.345337%, 85.118103%)" offset="0.535156"/><stop stop-opacity="1" stop-color="rgb(16.200256%, 38.623047%, 85.243225%)" offset="0.539062"/><stop stop-opacity="1" stop-color="rgb(16.249084%, 38.899231%, 85.368347%)" offset="0.542969"/><stop stop-opacity="1" stop-color="rgb(16.297913%, 39.176941%, 85.493469%)" offset="0.546875"/><stop stop-opacity="1" stop-color="rgb(16.346741%, 39.454651%, 85.618591%)" offset="0.550781"/><stop stop-opacity="1" stop-color="rgb(16.395569%, 39.732361%, 85.743713%)" offset="0.554688"/><stop stop-opacity="1" stop-color="rgb(16.444397%, 40.010071%, 85.868835%)" offset="0.558594"/><stop stop-opacity="1" stop-color="rgb(16.493225%, 40.287781%, 85.993958%)" offset="0.5625"/><stop stop-opacity="1" stop-color="rgb(16.542053%, 40.565491%, 86.11908%)" offset="0.566406"/><stop stop-opacity="1" stop-color="rgb(16.590881%, 40.843201%, 86.244202%)" offset="0.570312"/><stop stop-opacity="1" stop-color="rgb(16.639709%, 41.119385%, 86.369324%)" offset="0.574219"/><stop stop-opacity="1" stop-color="rgb(16.688538%, 41.397095%, 86.494446%)" offset="0.578125"/><stop stop-opacity="1" stop-color="rgb(16.737366%, 41.674805%, 86.619568%)" offset="0.582031"/><stop stop-opacity="1" stop-color="rgb(16.786194%, 41.952515%, 86.74469%)" offset="0.585938"/><stop stop-opacity="1" stop-color="rgb(16.835022%, 42.230225%, 86.868286%)" offset="0.589844"/><stop stop-opacity="1" stop-color="rgb(16.88385%, 42.507935%, 86.993408%)" offset="0.59375"/><stop stop-opacity="1" stop-color="rgb(16.932678%, 42.785645%, 87.11853%)" offset="0.597656"/><stop stop-opacity="1" stop-color="rgb(16.981506%, 43.063354%, 87.243652%)" offset="0.601562"/><stop stop-opacity="1" stop-color="rgb(17.030334%, 43.339539%, 87.368774%)" offset="0.605469"/><stop stop-opacity="1" stop-color="rgb(17.079163%, 43.617249%, 87.493896%)" offset="0.609375"/><stop stop-opacity="1" stop-color="rgb(17.127991%, 43.894958%, 87.619019%)" offset="0.613281"/><stop stop-opacity="1" stop-color="rgb(17.176819%, 44.172668%, 87.744141%)" offset="0.617188"/><stop stop-opacity="1" stop-color="rgb(17.225647%, 44.450378%, 87.869263%)" offset="0.621094"/><stop stop-opacity="1" stop-color="rgb(17.274475%, 44.728088%, 87.994385%)" offset="0.625"/><stop stop-opacity="1" stop-color="rgb(17.323303%, 45.005798%, 88.119507%)" offset="0.628906"/><stop stop-opacity="1" stop-color="rgb(17.372131%, 45.283508%, 88.244629%)" offset="0.632812"/><stop stop-opacity="1" stop-color="rgb(17.420959%, 45.559692%, 88.369751%)" offset="0.636719"/><stop stop-opacity="1" stop-color="rgb(17.469788%, 45.837402%, 88.494873%)" offset="0.640625"/><stop stop-opacity="1" stop-color="rgb(17.518616%, 46.115112%, 88.619995%)" offset="0.644531"/><stop stop-opacity="1" stop-color="rgb(17.567444%, 46.392822%, 88.745117%)" offset="0.648438"/><stop stop-opacity="1" stop-color="rgb(17.616272%, 46.670532%, 88.870239%)" offset="0.652344"/><stop stop-opacity="1" stop-color="rgb(17.6651%, 46.948242%, 88.995361%)" offset="0.65625"/><stop stop-opacity="1" stop-color="rgb(17.713928%, 47.225952%, 89.120483%)" offset="0.660156"/><stop stop-opacity="1" stop-color="rgb(17.762756%, 47.503662%, 89.245605%)" offset="0.664062"/><stop stop-opacity="1" stop-color="rgb(17.811584%, 47.779846%, 89.369202%)" offset="0.667969"/><stop stop-opacity="1" stop-color="rgb(17.860413%, 48.057556%, 89.494324%)" offset="0.671875"/><stop stop-opacity="1" stop-color="rgb(17.909241%, 48.335266%, 89.619446%)" offset="0.675781"/><stop stop-opacity="1" stop-color="rgb(17.958069%, 48.612976%, 89.744568%)" offset="0.679688"/><stop stop-opacity="1" stop-color="rgb(18.006897%, 48.890686%, 89.86969%)" offset="0.683594"/><stop stop-opacity="1" stop-color="rgb(18.055725%, 49.168396%, 89.994812%)" offset="0.6875"/><stop stop-opacity="1" stop-color="rgb(18.104553%, 49.446106%, 90.119934%)" offset="0.691406"/><stop stop-opacity="1" stop-color="rgb(18.153381%, 49.723816%, 90.245056%)" offset="0.695312"/><stop stop-opacity="1" stop-color="rgb(18.202209%, 50%, 90.370178%)" offset="0.699219"/><stop stop-opacity="1" stop-color="rgb(18.251038%, 50.27771%, 90.4953%)" offset="0.703125"/><stop stop-opacity="1" stop-color="rgb(18.299866%, 50.55542%, 90.620422%)" offset="0.707031"/><stop stop-opacity="1" stop-color="rgb(18.348694%, 50.83313%, 90.745544%)" offset="0.710938"/><stop stop-opacity="1" stop-color="rgb(18.397522%, 51.11084%, 90.870667%)" offset="0.714844"/><stop stop-opacity="1" stop-color="rgb(18.44635%, 51.38855%, 90.995789%)" offset="0.71875"/><stop stop-opacity="1" stop-color="rgb(18.495178%, 51.66626%, 91.120911%)" offset="0.722656"/><stop stop-opacity="1" stop-color="rgb(18.544006%, 51.94397%, 91.246033%)" offset="0.726562"/><stop stop-opacity="1" stop-color="rgb(18.592834%, 52.220154%, 91.371155%)" offset="0.730469"/><stop stop-opacity="1" stop-color="rgb(18.641663%, 52.497864%, 91.496277%)" offset="0.734375"/><stop stop-opacity="1" stop-color="rgb(18.688965%, 52.775574%, 91.621399%)" offset="0.738281"/><stop stop-opacity="1" stop-color="rgb(18.737793%, 53.053284%, 91.746521%)" offset="0.742188"/><stop stop-opacity="1" stop-color="rgb(18.786621%, 53.330994%, 91.871643%)" offset="0.746094"/><stop stop-opacity="1" stop-color="rgb(18.835449%, 53.608704%, 91.996765%)" offset="0.75"/><stop stop-opacity="1" stop-color="rgb(18.884277%, 53.886414%, 92.120361%)" offset="0.753906"/><stop stop-opacity="1" stop-color="rgb(18.933105%, 54.164124%, 92.245483%)" offset="0.757812"/><stop stop-opacity="1" stop-color="rgb(18.981934%, 54.440308%, 92.370605%)" offset="0.761719"/><stop stop-opacity="1" stop-color="rgb(19.030762%, 54.718018%, 92.495728%)" offset="0.765625"/><stop stop-opacity="1" stop-color="rgb(19.07959%, 54.995728%, 92.62085%)" offset="0.769531"/><stop stop-opacity="1" stop-color="rgb(19.128418%, 55.273438%, 92.745972%)" offset="0.773438"/><stop stop-opacity="1" stop-color="rgb(19.177246%, 55.551147%, 92.871094%)" offset="0.777344"/><stop stop-opacity="1" stop-color="rgb(19.226074%, 55.828857%, 92.996216%)" offset="0.78125"/><stop stop-opacity="1" stop-color="rgb(19.274902%, 56.106567%, 93.121338%)" offset="0.785156"/><stop stop-opacity="1" stop-color="rgb(19.32373%, 56.384277%, 93.24646%)" offset="0.789062"/><stop stop-opacity="1" stop-color="rgb(19.372559%, 56.660461%, 93.371582%)" offset="0.792969"/><stop stop-opacity="1" stop-color="rgb(19.421387%, 56.938171%, 93.496704%)" offset="0.796875"/><stop stop-opacity="1" stop-color="rgb(19.470215%, 57.215881%, 93.621826%)" offset="0.800781"/><stop stop-opacity="1" stop-color="rgb(19.519043%, 57.493591%, 93.746948%)" offset="0.804688"/><stop stop-opacity="1" stop-color="rgb(19.567871%, 57.771301%, 93.87207%)" offset="0.808594"/><stop stop-opacity="1" stop-color="rgb(19.616699%, 58.049011%, 93.997192%)" offset="0.8125"/><stop stop-opacity="1" stop-color="rgb(19.665527%, 58.326721%, 94.122314%)" offset="0.816406"/><stop stop-opacity="1" stop-color="rgb(19.714355%, 58.604431%, 94.247437%)" offset="0.820312"/><stop stop-opacity="1" stop-color="rgb(19.763184%, 58.880615%, 94.372559%)" offset="0.824219"/><stop stop-opacity="1" stop-color="rgb(19.812012%, 59.158325%, 94.497681%)" offset="0.828125"/><stop stop-opacity="1" stop-color="rgb(19.86084%, 59.436035%, 94.622803%)" offset="0.832031"/><stop stop-opacity="1" stop-color="rgb(19.909668%, 59.713745%, 94.747925%)" offset="0.835938"/><stop stop-opacity="1" stop-color="rgb(19.958496%, 59.991455%, 94.871521%)" offset="0.839844"/><stop stop-opacity="1" stop-color="rgb(20.007324%, 60.269165%, 94.996643%)" offset="0.84375"/><stop stop-opacity="1" stop-color="rgb(20.056152%, 60.546875%, 95.121765%)" offset="0.847656"/><stop stop-opacity="1" stop-color="rgb(20.10498%, 60.824585%, 95.246887%)" offset="0.851562"/><stop stop-opacity="1" stop-color="rgb(20.153809%, 61.100769%, 95.372009%)" offset="0.855469"/><stop stop-opacity="1" stop-color="rgb(20.202637%, 61.378479%, 95.497131%)" offset="0.859375"/><stop stop-opacity="1" stop-color="rgb(20.251465%, 61.656189%, 95.622253%)" offset="0.863281"/><stop stop-opacity="1" stop-color="rgb(20.300293%, 61.933899%, 95.747375%)" offset="0.867188"/><stop stop-opacity="1" stop-color="rgb(20.349121%, 62.211609%, 95.872498%)" offset="0.871094"/><stop stop-opacity="1" stop-color="rgb(20.397949%, 62.489319%, 95.99762%)" offset="0.875"/><stop stop-opacity="1" stop-color="rgb(20.446777%, 62.767029%, 96.122742%)" offset="0.878906"/><stop stop-opacity="1" stop-color="rgb(20.495605%, 63.044739%, 96.247864%)" offset="0.882812"/><stop stop-opacity="1" stop-color="rgb(20.544434%, 63.320923%, 96.372986%)" offset="0.886719"/><stop stop-opacity="1" stop-color="rgb(20.593262%, 63.598633%, 96.498108%)" offset="0.890625"/><stop stop-opacity="1" stop-color="rgb(20.64209%, 63.876343%, 96.62323%)" offset="0.894531"/><stop stop-opacity="1" stop-color="rgb(20.690918%, 64.154053%, 96.748352%)" offset="0.898438"/><stop stop-opacity="1" stop-color="rgb(20.739746%, 64.431763%, 96.873474%)" offset="0.902344"/><stop stop-opacity="1" stop-color="rgb(20.788574%, 64.709473%, 96.998596%)" offset="0.90625"/><stop stop-opacity="1" stop-color="rgb(20.837402%, 64.985657%, 97.123718%)" offset="0.910156"/><stop stop-opacity="1" stop-color="rgb(20.88623%, 65.263367%, 97.24884%)" offset="0.914062"/><stop stop-opacity="1" stop-color="rgb(20.935059%, 65.541077%, 97.372437%)" offset="0.917969"/><stop stop-opacity="1" stop-color="rgb(20.983887%, 65.818787%, 97.497559%)" offset="0.921875"/><stop stop-opacity="1" stop-color="rgb(21.032715%, 66.096497%, 97.622681%)" offset="0.925781"/><stop stop-opacity="1" stop-color="rgb(21.081543%, 66.374207%, 97.747803%)" offset="0.929688"/><stop stop-opacity="1" stop-color="rgb(21.130371%, 66.651917%, 97.872925%)" offset="0.933594"/><stop stop-opacity="1" stop-color="rgb(21.179199%, 66.929626%, 97.998047%)" offset="0.9375"/><stop stop-opacity="1" stop-color="rgb(21.226501%, 67.205811%, 98.123169%)" offset="0.941406"/><stop stop-opacity="1" stop-color="rgb(21.27533%, 67.483521%, 98.248291%)" offset="0.945312"/><stop stop-opacity="1" stop-color="rgb(21.324158%, 67.76123%, 98.373413%)" offset="0.949219"/><stop stop-opacity="1" stop-color="rgb(21.372986%, 68.03894%, 98.498535%)" offset="0.953125"/><stop stop-opacity="1" stop-color="rgb(21.421814%, 68.31665%, 98.623657%)" offset="0.957031"/><stop stop-opacity="1" stop-color="rgb(21.470642%, 68.59436%, 98.748779%)" offset="0.960938"/><stop stop-opacity="1" stop-color="rgb(21.51947%, 68.87207%, 98.873901%)" offset="0.964844"/><stop stop-opacity="1" stop-color="rgb(21.568298%, 69.14978%, 98.999023%)" offset="0.96875"/><stop stop-opacity="1" stop-color="rgb(21.617126%, 69.425964%, 99.124146%)" offset="0.972656"/><stop stop-opacity="1" stop-color="rgb(21.665955%, 69.703674%, 99.249268%)" offset="0.976562"/><stop stop-opacity="1" stop-color="rgb(21.714783%, 69.981384%, 99.37439%)" offset="0.980469"/><stop stop-opacity="1" stop-color="rgb(21.763611%, 70.259094%, 99.499512%)" offset="0.984375"/><stop stop-opacity="1" stop-color="rgb(21.812439%, 70.536804%, 99.624634%)" offset="0.988281"/><stop stop-opacity="1" stop-color="rgb(21.861267%, 70.814514%, 99.749756%)" offset="0.992188"/><stop stop-opacity="1" stop-color="rgb(21.910095%, 71.092224%, 99.874878%)" offset="0.996094"/><stop stop-opacity="1" stop-color="rgb(21.958923%, 71.369934%, 100%)" offset="1"/></linearGradient></defs><g fill="#000000" fill-opacity="1"><g transform="translate(61.82163, 41.703853)"><g><path d="M 1.1875 -16.28125 L 7.125 -16.28125 C 8.78125 -16.28125 10.117188 -15.851562 11.140625 -15 C 12.171875 -14.144531 12.6875 -12.898438 12.6875 -11.265625 C 12.6875 -9.640625 12.164062 -8.359375 11.125 -7.421875 C 10.09375 -6.492188 8.757812 -6.03125 7.125 -6.03125 L 4.890625 -6.03125 L 4.890625 0 L 1.1875 0 Z M 4.890625 -9 L 5.9375 -9 C 6.769531 -9 7.453125 -9.164062 7.984375 -9.5 C 8.515625 -9.832031 8.78125 -10.382812 8.78125 -11.15625 C 8.78125 -11.925781 8.515625 -12.476562 7.984375 -12.8125 C 7.453125 -13.15625 6.769531 -13.328125 5.9375 -13.328125 L 4.890625 -13.328125 Z M 4.890625 -9 "/></g></g></g><g fill="#000000" fill-opacity="1"><g transform="translate(74.957757, 41.703853)"><g><path d="M 1.1875 -16.28125 L 7 -16.28125 C 8.570312 -16.28125 9.847656 -15.863281 10.828125 -15.03125 C 11.816406 -14.195312 12.3125 -13.003906 12.3125 -11.453125 C 12.3125 -10.253906 12.007812 -9.25 11.40625 -8.4375 C 10.8125 -7.625 10.003906 -7.054688 8.984375 -6.734375 L 14.578125 0 L 9.875 0 L 4.890625 -6.4375 L 4.890625 0 L 1.1875 0 Z M 4.890625 -9.0625 L 5.328125 -9.0625 C 5.671875 -9.0625 5.957031 -9.066406 6.1875 -9.078125 C 6.425781 -9.085938 6.695312 -9.128906 7 -9.203125 C 7.300781 -9.285156 7.546875 -9.398438 7.734375 -9.546875 C 7.921875 -9.691406 8.078125 -9.898438 8.203125 -10.171875 C 8.335938 -10.453125 8.40625 -10.789062 8.40625 -11.1875 C 8.40625 -11.582031 8.335938 -11.914062 8.203125 -12.1875 C 8.078125 -12.46875 7.921875 -12.679688 7.734375 -12.828125 C 7.546875 -12.972656 7.300781 -13.082031 7 -13.15625 C 6.695312 -13.238281 6.425781 -13.285156 6.1875 -13.296875 C 5.957031 -13.316406 5.671875 -13.328125 5.328125 -13.328125 L 4.890625 -13.328125 Z M 4.890625 -9.0625 "/></g></g></g><g fill="#000000" fill-opacity="1"><g transform="translate(89.08008, 41.703853)"><g><path d="M 0.453125 -8.15625 C 0.453125 -10.507812 1.253906 -12.5 2.859375 -14.125 C 4.460938 -15.757812 6.394531 -16.578125 8.65625 -16.578125 C 10.9375 -16.578125 12.875 -15.765625 14.46875 -14.140625 C 16.0625 -12.515625 16.859375 -10.519531 16.859375 -8.15625 C 16.859375 -5.769531 16.070312 -3.765625 14.5 -2.140625 C 12.9375 -0.515625 10.988281 0.296875 8.65625 0.296875 C 6.28125 0.296875 4.316406 -0.503906 2.765625 -2.109375 C 1.222656 -3.722656 0.453125 -5.738281 0.453125 -8.15625 Z M 4.453125 -8.15625 C 4.453125 -7.300781 4.582031 -6.519531 4.84375 -5.8125 C 5.113281 -5.101562 5.578125 -4.503906 6.234375 -4.015625 C 6.890625 -3.535156 7.695312 -3.296875 8.65625 -3.296875 C 10.039062 -3.296875 11.082031 -3.769531 11.78125 -4.71875 C 12.488281 -5.664062 12.84375 -6.8125 12.84375 -8.15625 C 12.84375 -9.476562 12.484375 -10.613281 11.765625 -11.5625 C 11.054688 -12.519531 10.019531 -13 8.65625 -13 C 7.320312 -13 6.285156 -12.519531 5.546875 -11.5625 C 4.816406 -10.613281 4.453125 -9.476562 4.453125 -8.15625 Z M 4.453125 -8.15625 "/></g></g></g><g fill="#000000" fill-opacity="1"><g transform="translate(106.377954, 41.703853)"><g><path d="M 8.265625 -16.28125 L 8.265625 -4.59375 C 8.265625 -3 7.828125 -1.785156 6.953125 -0.953125 C 6.078125 -0.117188 4.828125 0.296875 3.203125 0.296875 C 2.765625 0.296875 2.332031 0.242188 1.90625 0.140625 C 1.488281 0.0351562 1.132812 -0.0859375 0.84375 -0.234375 C 0.5625 -0.390625 0.300781 -0.546875 0.0625 -0.703125 C -0.164062 -0.867188 -0.332031 -1.003906 -0.4375 -1.109375 L -0.609375 -1.265625 L 0.578125 -4.359375 C 1.347656 -3.617188 2.050781 -3.25 2.6875 -3.25 C 3.25 -3.25 3.703125 -3.4375 4.046875 -3.8125 C 4.390625 -4.1875 4.5625 -4.765625 4.5625 -5.546875 L 4.5625 -16.28125 Z M 8.265625 -16.28125 "/></g></g></g><g fill="#000000" fill-opacity="1"><g transform="translate(115.628472, 41.703853)"><g><path d="M 4.890625 -16.28125 L 4.890625 0 L 1.1875 0 L 1.1875 -16.28125 Z M 4.890625 -16.28125 "/></g></g></g><g fill="#000000" fill-opacity="1"><g transform="translate(121.703439, 41.703853)"><g><path d="M 4.890625 -10.109375 L 4.890625 0 L 1.1875 0 L 1.1875 -16.28125 L 4.890625 -16.28125 L 11.359375 -6.171875 L 11.40625 -6.171875 L 11.40625 -16.28125 L 15.109375 -16.28125 L 15.109375 0 L 11.40625 0 L 4.9375 -10.109375 Z M 4.890625 -10.109375 "/></g></g></g><g fill="#000000" fill-opacity="1"><g transform="translate(137.995388, 41.703853)"><g><path d="M 15.90625 -9.125 L 15.90625 -5.578125 C 15.488281 -3.648438 14.566406 -2.1875 13.140625 -1.1875 C 11.722656 -0.195312 10.140625 0.296875 8.390625 0.296875 C 6.191406 0.296875 4.316406 -0.523438 2.765625 -2.171875 C 1.222656 -3.816406 0.453125 -5.800781 0.453125 -8.125 C 0.453125 -10.5 1.207031 -12.5 2.71875 -14.125 C 4.238281 -15.757812 6.128906 -16.578125 8.390625 -16.578125 C 11.035156 -16.578125 13.125 -15.648438 14.65625 -13.796875 L 12.234375 -11.125 C 11.367188 -12.519531 10.160156 -13.21875 8.609375 -13.21875 C 7.460938 -13.21875 6.484375 -12.71875 5.671875 -11.71875 C 4.859375 -10.726562 4.453125 -9.53125 4.453125 -8.125 C 4.453125 -6.75 4.859375 -5.570312 5.671875 -4.59375 C 6.484375 -3.613281 7.460938 -3.125 8.609375 -3.125 C 9.554688 -3.125 10.378906 -3.40625 11.078125 -3.96875 C 11.785156 -4.539062 12.140625 -5.300781 12.140625 -6.25 L 8.390625 -6.25 L 8.390625 -9.125 Z M 15.90625 -9.125 "/></g></g></g><g fill="#1800ad" fill-opacity="1"><g transform="translate(154.350372, 41.703853)"><g><path d="M 1.1875 -16.28125 L 7.125 -16.28125 C 8.78125 -16.28125 10.117188 -15.851562 11.140625 -15 C 12.171875 -14.144531 12.6875 -12.898438 12.6875 -11.265625 C 12.6875 -9.640625 12.164062 -8.359375 11.125 -7.421875 C 10.09375 -6.492188 8.757812 -6.03125 7.125 -6.03125 L 4.890625 -6.03125 L 4.890625 0 L 1.1875 0 Z M 4.890625 -9 L 5.9375 -9 C 6.769531 -9 7.453125 -9.164062 7.984375 -9.5 C 8.515625 -9.832031 8.78125 -10.382812 8.78125 -11.15625 C 8.78125 -11.925781 8.515625 -12.476562 7.984375 -12.8125 C 7.453125 -13.15625 6.769531 -13.328125 5.9375 -13.328125 L 4.890625 -13.328125 Z M 4.890625 -9 "/></g></g></g><g fill="#1800ad" fill-opacity="1"><g transform="translate(167.4865, 41.703853)"><g><path d="M 1.1875 -16.28125 L 7 -16.28125 C 8.570312 -16.28125 9.847656 -15.863281 10.828125 -15.03125 C 11.816406 -14.195312 12.3125 -13.003906 12.3125 -11.453125 C 12.3125 -10.253906 12.007812 -9.25 11.40625 -8.4375 C 10.8125 -7.625 10.003906 -7.054688 8.984375 -6.734375 L 14.578125 0 L 9.875 0 L 4.890625 -6.4375 L 4.890625 0 L 1.1875 0 Z M 4.890625 -9.0625 L 5.328125 -9.0625 C 5.671875 -9.0625 5.957031 -9.066406 6.1875 -9.078125 C 6.425781 -9.085938 6.695312 -9.128906 7 -9.203125 C 7.300781 -9.285156 7.546875 -9.398438 7.734375 -9.546875 C 7.921875 -9.691406 8.078125 -9.898438 8.203125 -10.171875 C 8.335938 -10.453125 8.40625 -10.789062 8.40625 -11.1875 C 8.40625 -11.582031 8.335938 -11.914062 8.203125 -12.1875 C 8.078125 -12.46875 7.921875 -12.679688 7.734375 -12.828125 C 7.546875 -12.972656 7.300781 -13.082031 7 -13.15625 C 6.695312 -13.238281 6.425781 -13.285156 6.1875 -13.296875 C 5.957031 -13.316406 5.671875 -13.328125 5.328125 -13.328125 L 4.890625 -13.328125 Z M 4.890625 -9.0625 "/></g></g></g><g fill="#1800ad" fill-opacity="1"><g transform="translate(181.608822, 41.703853)"><g><path d="M 0.453125 -8.15625 C 0.453125 -10.507812 1.253906 -12.5 2.859375 -14.125 C 4.460938 -15.757812 6.394531 -16.578125 8.65625 -16.578125 C 10.9375 -16.578125 12.875 -15.765625 14.46875 -14.140625 C 16.0625 -12.515625 16.859375 -10.519531 16.859375 -8.15625 C 16.859375 -5.769531 16.070312 -3.765625 14.5 -2.140625 C 12.9375 -0.515625 10.988281 0.296875 8.65625 0.296875 C 6.28125 0.296875 4.316406 -0.503906 2.765625 -2.109375 C 1.222656 -3.722656 0.453125 -5.738281 0.453125 -8.15625 Z M 4.453125 -8.15625 C 4.453125 -7.300781 4.582031 -6.519531 4.84375 -5.8125 C 5.113281 -5.101562 5.578125 -4.503906 6.234375 -4.015625 C 6.890625 -3.535156 7.695312 -3.296875 8.65625 -3.296875 C 10.039062 -3.296875 11.082031 -3.769531 11.78125 -4.71875 C 12.488281 -5.664062 12.84375 -6.8125 12.84375 -8.15625 C 12.84375 -9.476562 12.484375 -10.613281 11.765625 -11.5625 C 11.054688 -12.519531 10.019531 -13 8.65625 -13 C 7.320312 -13 6.285156 -12.519531 5.546875 -11.5625 C 4.816406 -10.613281 4.453125 -9.476562 4.453125 -8.15625 Z M 4.453125 -8.15625 "/></g></g></g><g fill="#5170ff" fill-opacity="1"><g transform="translate(198.916434, 41.703853)"><g/></g></g><g clip-path="url(#0591ff16ca)"><g clip-path="url(#dcd847e581)"><path fill="url(#9569aa7154)" d="M 20.550781 14.226562 L 20.550781 60.476562 L 55.324219 60.476562 L 55.324219 14.226562 Z M 20.550781 14.226562 " fill-rule="nonzero"/></g></g></svg>